<svg xmlns="http://www.w3.org/2000/svg" viewBox="0 0 1094.35 1559.06"><defs><style>.cls-1{fill:#010101;}.cls-1,.cls-11,.cls-12,.cls-14,.cls-15,.cls-19,.cls-2,.cls-21,.cls-22,.cls-23,.cls-3,.cls-4,.cls-5,.cls-6,.cls-7,.cls-8{fill-rule:evenodd;}.cls-2{fill:#00a959;}.cls-16,.cls-17,.cls-19,.cls-3,.cls-5{fill:#fee713;}.cls-4,.cls-7{fill:#7ac24e;}.cls-5{stroke:#fee713;}.cls-10,.cls-12,.cls-13,.cls-14,.cls-15,.cls-17,.cls-18,.cls-19,.cls-20,.cls-21,.cls-22,.cls-23,.cls-24,.cls-25,.cls-26,.cls-27,.cls-5,.cls-7,.cls-8,.cls-9{stroke-miterlimit:2.61;}.cls-5,.cls-7,.cls-8{stroke-width:5.61px;}.cls-10,.cls-21,.cls-6{fill:#fff;}.cls-7,.cls-8{stroke:#7ac24e;}.cls-12,.cls-13,.cls-15,.cls-18,.cls-22,.cls-25,.cls-26,.cls-8,.cls-9{fill:none;}.cls-9{stroke:#ed3438;stroke-width:3.18px;}.cls-10,.cls-14,.cls-15{stroke:#fff;}.cls-10,.cls-17,.cls-18,.cls-19,.cls-20,.cls-21,.cls-22,.cls-23,.cls-24,.cls-25{stroke-width:1.59px;}.cls-11,.cls-20,.cls-23,.cls-24,.cls-27{fill:#383535;}.cls-12,.cls-13,.cls-24,.cls-25,.cls-26,.cls-27{stroke:#383535;}.cls-12,.cls-13{stroke-width:3.33px;}.cls-14{fill:#ed3438;}.cls-14,.cls-15{stroke-width:6.36px;}.cls-17,.cls-18,.cls-19,.cls-20,.cls-21,.cls-22,.cls-23{stroke:#c09e2e;}.cls-26{stroke-width:1.71px;}.cls-27{stroke-width:0.79px;}</style></defs><title>Logo Kabupaten Siak</title><g id="Layer_2" data-name="Layer 2"><g id="Layer_1-2" data-name="Layer 1"><path class="cls-1" d="M30.21,1119.79c34.86,306.46,467.49,313.43,517,439.27,49.47-125.84,482.1-132.81,517-439.27l30.22-1030.6c-35.53-6.46-70.29-1.73-91.64,27.23C962.65,43.21,894.12,0,828.73,0H265.62c-65.4,0-133.93,43.21-174,116.42C70.28,87.46,35.52,82.73,0,89.19Z"/><path class="cls-2" d="M60.28,1117.61c6.93,58.81,30.42,108.73,70.87,152C163,1303.64,202.37,1330.51,243,1353c63.4,35.07,130.67,59.72,196.55,89.21,34.37,15.39,77.88,35.76,107.62,65.09,29.75-29.33,73.25-49.7,107.63-65.09,65.88-29.49,133.15-54.14,196.54-89.21,95.23-52.68,169.34-121.84,182.73-235.38l29.34-1000.77c-14.09.75-27.5,5.3-36.46,17.45l-28,38-22.65-41.4c-29-53.09-84.2-100.75-147.56-100.75H265.62c-63.36,0-118.51,47.66-147.56,100.75l-22.65,41.4-28-38c-9-12.15-22.37-16.7-36.46-17.45Z"/><path class="cls-3" d="M225.32,810.22c8.05,13.8-14.75-21.46-16.86-37.17-1.73-12.84,1.15-20.51,3.45-33.54,3.83-16.48,6.9-25.49,14.56-40.63,8.63,16.1,12.46,26.26,16.87,44.46,4.41,19,3.83,30.28,4.79,50,.38,13,.38,20.7,0,33.73a222.16,222.16,0,0,1-27.6-2.49c-18.2-2.69-28.93-4.41-45.42-12.08-14.56-6.51-22.8-10.92-34.87-21.27-16.87-14.75-24.91-26.25-33.54-47a184.5,184.5,0,0,1,33.54,7.28c13.41,4.22,21.08,6.52,33.34,13C197.53,777.45,220.53,802,225.32,810.22Z"/><path class="cls-3" d="M175.11,738.55c3.65,0-6.32-27.21-5-44.46,1.54-14.94,3.45-23.57,9.78-37,4.4-10.73,8.24-16.1,15.52-25.11,5.56,10.35,7.86,16.87,10.73,28.56,3.64,16.48,1.92,26.25,1.34,43.11-1.72,25.49-4.21,40.25-12.07,64.78A254.18,254.18,0,0,1,163,752.54c-15.14-8.62-23.76-13.8-37.37-25.1-13.41-11.31-22.42-17.63-31-33.35-6.52-12.07-8.82-19.73-10.54-33.53,13.8,3.06,21.27,6.13,33.34,13,9,5.17,13.8,9,21.85,15.52a127.9,127.9,0,0,1,21.27,24.15C167.07,722.26,173.58,738.55,175.11,738.55Z"/><path class="cls-3" d="M160.55,705c-10.92-13.8-17.25-21.66-28.55-34.88-15-17.25-28.94-22.62-39.67-42.93-7.28-14.56-9-24-11.69-39.67a167.64,167.64,0,0,1-3.83-32.38c15.52,5.75,24.14,11.3,35.83,22.61,13.42,13.22,18.59,23.57,25.11,41,6.32,16.29,8.43,26.64,8.62,44.27-3.07-15.14-3.45-24.15-1.34-39.67,1.72-12.46,3.07-19.74,8.24-31,8-16.67,15.9-25.48,31.43-35.83,5.55,11.31,7.28,18.59,8.24,31,1.72,23.38-10.73,35.07-16.87,57.49C169.94,668.22,166.49,682.21,160.55,705Z"/><path class="cls-3" d="M137.75,599.62c-7.09-7.29-16.1-22.23-25.11-37.37-7.66-12.65-14.56-19-18-33.35-3.64-16.29.38-26.63,2.49-43.11a253.85,253.85,0,0,1,6.13-31.05c13.61,12.84,20.12,22,27.41,39.29,4.79,11.3,6.51,18.2,8.62,30.08,3.45,19.93,3.45,31.62,0,51.55.57-16.86,2.3-26.06,7.09-42,4.22-14.18,5.17-23.18,14.18-34.87,11.69-14.38,22.42-21.27,40.63-25.11-.58,11.31-1.92,18-4.79,28.94-4,16.86-7.48,26.83-16.48,41.78C170.52,560,160,564.36,149.82,579.11,144.65,586.78,144.45,606.13,137.75,599.62Z"/><path class="cls-3" d="M144.07,515.68c-2.49-8.24-12.84-31.62-18.4-52.7-3.64-15.52-8.62-24.53-8.24-40.63.77-14.75,5.56-22.8,9.78-37.17,2.68-9.78,4-15.33,7.09-24.92,7.28,9.59,10.73,15.91,15.52,27.22,6.71,16.67,9,26.83,9.77,44.46.39,11.69-.38,18.39-2.49,30.08,1.34-14.94,5.18-23.57,14.18-34.87,6.52-7.86,12.07-11.12,20.32-16.87,12.07-7.85,19.93-11.31,33.72-15.52-2.68,11.69-5.17,17.82-9.58,28.94-6.9,15.9-12.07,24.53-22.8,38.32-10.35,12.65-19,17.25-29.9,29.7C155,500.54,147.52,527.75,144.07,515.68Z"/><path class="cls-3" d="M165.34,430.6c-7.09,11.11-3.64-24.73-5.75-40.63-2.11-12.46-5.56-19.74-4.79-32.2.19-11.69,2.68-17.82,5.75-28.93,5.56-19.93,10.35-31,20.31-48.87,8,8.62,11.69,14.76,14.57,26.25,3.45,14,0,22.62-2.49,37.18-2.11,11.69-3.45,18.59-7.29,29.9,4.22-10.54,8.44-16.48,17.06-24.15,8.24-7.09,14.76-8.81,25.1-13,13-5.17,21.28-7.28,35.84-8.24a139.13,139.13,0,0,0-15.52,17.82c-9,11.88-9,21.85-19.36,32.58-9.58,9.58-19,10.35-29.89,19C184.31,408.56,183.35,404.34,165.34,430.6Z"/><path class="cls-3" d="M198.88,343.4c-11.12,10.73,1.34-24.14,2.3-39.67,1.53-15.14-2.68-25.48,3.83-39.28,5.17-11.31,11.69-15.14,20.31-24.15a180.28,180.28,0,0,1,23.77-21.46,126.08,126.08,0,0,1,0,23.95c-1.34,18.59-1.92,30.28-10.54,46.76-8.05,15.14-15,23.19-28.75,33.54,12.46-14.95,20.7-22.42,36-34.88,9.2-7.66,13.61-13,25.1-18,14.18-6.14,24.15-7.09,39.29-4.79a117.48,117.48,0,0,1-12.08,16.86c-12.84,15.52-22,23.19-39.28,33.54-12.07,6.9-19.93,8.62-32.39,14.56C215.74,335.16,219.19,324.05,198.88,343.4Z"/><path class="cls-3" d="M245.83,277.48c1-7.28,8.81-30.28,20.31-46.57,9.2-14,15.52-22.42,29.9-31.23,11.69-7.29,20.31-7.67,33.53-11.89,12.65-4.4,20.32-6.9,33.35-10.92-4.41,7.47-6.9,12.07-12.08,19.35C340.5,211.36,334.94,221,321,233c-15.52,13.8-28.75,15.91-46.57,26.64C262.88,266.55,243.34,290.7,245.83,277.48Z"/><polygon class="cls-3" points="542.09 118.23 595.56 118.23 552.44 150.62 568.92 201.59 568.54 201.97 526.19 170.35 483.65 201.97 483.26 201.59 500.13 150.62 456.82 119 510.09 118.23 525.81 68.21 542.09 118.23"/><path class="cls-3" d="M310.22,858.13c25.1,12.84,24.53,15.33,40.62,23.57,23.77,12.08,38.33,16.87,63.44,25.11,27.21,9.39,43.5,11.5,70.71,19.35,20.69,5.94,32,9.78,52.51,15.53,21.46,5.94,34.87,5.17,55.19,14.56,28.93,13,44.84,25.1,64.58,50.21l-34.88-1.34c-14.56-17.25-24.53-25.87-44.08-37.18-24.91-14.18-43.11-13.42-70.52-21.47-37.94-10.92-60.75-13.41-98.31-26.06-37.56-13.22-58.64-22.23-94.47-39.67C62.24,757.52,77.19,397.83,273.23,245.09-30.7,666.5,301.21,853.34,310.22,858.13Z"/><path class="cls-4" d="M697.13,894.54c-26.45,9.2-26.07,12.07-43.31,17.82-25.3,8.63-40.44,11.12-66.69,16.29-27.79,5.18-44.08,5.18-72.06,9-21.46,3.07-33.53,2.68-54.61,8.24-16.1,3.83-25.49,6.13-40.24,13.41-23.77,11.31-36.61,21.09-53.85,41h37.17c8.44-13.79,14.95-20.69,28-29.7,19.74-13,35.26-10.92,57.87-16.1,38.91-8.24,61.9-4.79,101-12.45,39.28-7.28,60.94-13.42,98.88-25.87,12.84-4.22,19.74-6.52,32-11.31C713.42,898.18,706.9,891.09,697.13,894.54Z"/><path class="cls-5" d="M498,916.58c5,0,8.62,6.13,8.62,13.41v23.38c0,7.29-3.64,13.61-8.62,13.61-4.41,0-8.24-6.32-8.24-13.61V930C489.78,922.71,493.61,916.58,498,916.58Z"/><path class="cls-5" d="M524.46,916.58c4.41,0,8.24,6.13,8.24,13.41v23.38c0,7.29-3.83,13.61-8.24,13.61-4.6,0-8.43-6.32-8.43-13.61V930C516,922.71,519.86,916.58,524.46,916.58Z"/><path class="cls-5" d="M550.72,916.58c4.79,0,8.24,6.13,8.24,13.41v23.38c0,7.29-3.45,13.61-8.24,13.61-4.6,0-8.24-6.32-8.24-13.61V930C542.48,922.71,546.12,916.58,550.72,916.58Z"/><path class="cls-6" d="M842.77,222.29c-2.49-15.53-8-24.72-20.51-34.5-6.13-5.17-10.34-7.09-17.82-9.58-6.51-2.49-10.73-3.06-18-3.83l-4.79,9.77c-4.79-1.72-7.86-2.87-13-3.45-8.05-1.72-16.87-8.43-20.32-1.53-2.49,5-1.53,9.77,2.3,13.22a64,64,0,0,0,0,12.07,138.31,138.31,0,0,0,2.49,19.36l-14.56,2.3a25.51,25.51,0,0,0,0,14.18c3.07,10,10.73,12.46,19.35,17.82,10.35,7.29,17.64,9.78,30.09,12.08,13.42,2.87,23.76,7.28,35.84,0,11.3-6.9,13-16.87,16.48-29.9C842.39,233.4,842.77,229.57,842.77,222.29Z"/><path class="cls-7" d="M853.69,269.24c3.84-7.28,5.18-12.07,5.94-20.31.58-8.63,0-13.8-3.44-21.66-2.5-4.6-5.56-6.32-7.29-10.73-3.06-6.9-3.83-11.69-2.49-19.36a49.42,49.42,0,0,0-8.62,12.08c-2.69,6.13-3.07,10-4.41,16.86-2.49,10.35-2.68,16.67-2.49,27.21-2.3-6.9-5.18-10.54-10.93-15.52-8-6.13-14.94-8.24-25.1-6.9,1.34,4.6,1.92,7.28,3.64,11.88,2.11,6.14,2.49,10,5.94,15.33a30.68,30.68,0,0,0,8.62,9.78,100.92,100.92,0,0,0-16.86-2.49c-11.5-.58-18.58-2.3-28.74,2.49A35.08,35.08,0,0,0,754,278.63a64.11,64.11,0,0,1,12.08,0c5.94.57,9,1.72,14.56,3.64,9.2,3.45,12.07,10.35,21.27,14.18,9,3.83,14.57,4.6,24.15,4.79,10.35.77,19,4.22,26.25-3.45A21.19,21.19,0,0,0,853.69,269.24Z"/><path class="cls-6" d="M944.34,342.06c2.1-10.35,1.53-17.25-1.92-27.21-4.22-11.12-10.35-15-17.06-24.15-5.36-8.05-8.62-12.45-14.37-20.5L893,280A145.7,145.7,0,0,0,871.71,274a182.49,182.49,0,0,0-30.09-4.79c-1.72,4.79-2.3,7.85-3.83,13-2.69,12.46-4,19.74-5.75,32.58-.39,3.45-.77,5.36-1.15,9.2l-13.42,3.83c1.35,10.35,2.88,16.1,6.33,26.25,3.45,10.35,3.45,18.59,12.07,25.11,4,3.45,7.86,3.83,13,5.94,11.31,5.36,17.25,10.54,30.09,13.41,12.65,2.69,21.65,5.56,33.34,0,7.86-4.21,11.12-8.62,16.48-15.9C939.55,369.65,943,358.16,944.34,342.06Z"/><path class="cls-7" d="M900.26,429.64c-9.58-1.73-15.14-3.84-23.76-8.44-9.59-5.17-13.42-10.15-21.66-16.86-6.9-5.37-11.11-8.62-18-14.37,6.51-1.34,10-2.11,16.86-2.49h10.73c11.31,1.15,18.21,2.49,28.56,7.28-6.9-7.67-9.58-13.8-10.73-23.76-.58-6.52,1.72-10.35,1.15-16.87a37.75,37.75,0,0,0-2.5-12.07c9,5.17,13.42,8.62,21.85,14.37,4.79,3.45,8.24,4.79,12.07,9.78,3.45,4.79,5.18,8.23,5.75,14.37-1-9.2,0-15.14,4.79-22.81,2.11-3.64,4.6-5.17,7.29-8.62,5.55-6.52,20.12-23,14.18-16.48.38,5.94.76,9.39,1.34,15.52,1.15,9.39,4.79,14.57,4.79,23.76a55.33,55.33,0,0,1-2.3,16.87c-2.49,7.66-5.94,10.73-9.77,18-5.18,10-8.24,15.91-13,26.26Z"/><path class="cls-6" d="M998.57,545.77c1.72-12.84,2.68-19.93,4.79-32.39,1.72-11.69,5.56-18.4,4.79-30.09-1-8.81-2.3-14.37-6.13-22.61l-10.73,3.64c7.85,8.05-12.46-12.26-20.32-20.31-9.39-9.58-12.07-17.82-24.14-24.15-8.24-4.4-14.57-7.47-23.77-5.75-6.32,1-9.77,3.07-14.56,7.09-6.13,5-8.24,9.4-11.69,16.68-5.56,10.73-4.41,18.2-7.28,29.89-1.73,6.9-1.34,11.5-4.79,18a62.11,62.11,0,0,1-4.79,7.28l-8.24,4.79c1.34,9.58,3.45,15.14,8.24,23.76,6.51,11.69,11.3,18.59,22.8,25.11,5.17,3.25,8.62,3.83,14.37,6.32,7.67,2.68,13.23,2.68,20.32,6.9,9.39,6.13,8.43,18.2,19,21.65,12.07,3.83,23.57.39,31-9.58Z"/><path class="cls-7" d="M931.3,623.38c-9.39-6.33-14.56-10-22.8-18-7.28-6.9-12.07-10.74-17.82-19-5.18-7.47-5.56-13-10.73-20.31a81,81,0,0,0-15.53-16.86c9.39,1.34,14.57,2.11,23.77,3.83,9,1,15.14-1.15,22.8,3.45,5.18,3.07,6.9,6.13,10.92,10.73a170.63,170.63,0,0,1,16.68,21.66c-3.45-9.39-4.22-15.53-3.45-25.11.38-7.66,2.68-11.88,4.79-19.35,1.72-8.24,2.68-13.23,4.41-21.47,5.55,5.94,8.43,9.39,13.6,15.52,5.75,7.67,11.69,11.12,14,20.32,2.88,10.16,1.73,17.25-3.45,26.25,0-13.8,4.22-23,14.57-32,3.45-3.45,6.13-4.79,10.73-7.28a120.69,120.69,0,0,1,23.76-12.08c-2.49,8.25-3.83,13-5.94,21.47-3.45,13.8-.57,23-8.24,34.68-5.56,8.63-10.73,12.08-19.36,18C966.37,620.31,952.77,624,931.3,623.38Z"/><path class="cls-6" d="M860.59,709.61a110.66,110.66,0,0,1-3.45-33.53c.39-10.73-.38-17.63,3.45-27.6a53.85,53.85,0,0,1,8.63-14.18L880,641.2a27.08,27.08,0,0,0,13-1c11.5-3.45,12.84-13.79,22.8-20.31a84.5,84.5,0,0,1,21.66-10.73,80.19,80.19,0,0,1,20.5-4.79c7.48,6.13,11.69,10.73,16.48,19s5.56,13.8,8.63,22.8a229.05,229.05,0,0,1,5.74,22.62l17.06,2.49a127.93,127.93,0,0,1-2.49,22.8c-4.41,20.32-9.58,32-22.8,47.91-12.65,15.52-21.28,26.45-40.63,31-21.08,5.17-35.26-1.15-54.23-11.89-12.27-7.09-23-10.34-27.41-24.14C855,727.05,855.8,719.2,860.59,709.61Z"/><path class="cls-4" d="M854.84,779.18c-5.94-8.24-12.07-11.69-14.56-21.66-1.34-6.7,0-10.73,0-18,0-7.86-.38-12.46,0-20.31.76-10.73,1.34-16.87,3.83-27.6,8.62,4.41,13,7.86,19,15.52,5.18,6.9,6.52,11.69,9.58,19.36A139.94,139.94,0,0,1,879,744.3c4-7.47,6.71-11.69,13-17.82,4.79-5.18,8.24-7.67,14.18-12.07A141.88,141.88,0,0,1,924,703.67a62.51,62.51,0,0,1,0,12.08c0,12.07,2.11,19.35-1,31a55.23,55.23,0,0,1-7.28,17.82c11.12-5.36,18-7.09,30.09-8.24a72.52,72.52,0,0,1,21.27,1.15,79.88,79.88,0,0,1,21.65,7.09,71.18,71.18,0,0,0-22.61,7.29c-13.22,6.51-15.9,17.24-28.74,23.76-10,5.17-16.48,6.9-27.6,8.62-13.8,2.11-23.76,5.56-35.83-1.34C863.47,797.38,861.74,788.76,854.84,779.18Z"/><path class="cls-8" d="M854.84,779.18c-5.94-8.24-12.07-11.69-14.56-21.66-1.34-6.7,0-10.73,0-18,0-7.86-.38-12.46,0-20.31.76-10.73,1.34-16.87,3.83-27.6,8.62,4.41,13,7.86,19,15.52,5.18,6.9,6.52,11.69,9.58,19.36A139.94,139.94,0,0,1,879,744.3c4-7.47,6.71-11.69,13-17.82,4.79-5.18,8.24-7.67,14.18-12.07A141.88,141.88,0,0,1,924,703.67v12.08c0,12.07,2.11,19.35-1,31a55.23,55.23,0,0,1-7.28,17.82c11.12-5.36,18-7.09,30.09-8.24a72.52,72.52,0,0,1,21.27,1.15,79.88,79.88,0,0,1,21.65,7.09,71.18,71.18,0,0,0-22.61,7.29c-13.22,6.51-15.9,17.24-28.74,23.76-10,5.17-16.48,6.9-27.6,8.62-13.8,2.11-23.76,5.56-35.83-1.34-10.54-5.56-12.27-14.18-19.17-23.76"/><path class="cls-6" d="M770.91,818.46c4.6-9.39,5-15.52,9.77-25.1,4.41-9.39,5.75-16.29,14.18-22.8a39.54,39.54,0,0,1,8.43-4.41,14.1,14.1,0,0,0,5,4.41c5.17,3.83,10,2.1,16.48,2.49,12.83.57,19.73-2.88,32.38-3.45,9.77-.39,17.63-6.33,25.11,0,6.32,4.79,5.17,11.3,7.28,19.16,2.11,8.62.77,13.8,2.49,22.8,1.34,7.86.57,13,4.79,20.32a30,30,0,0,0,5.94,8.24l9.58-1.34a111.9,111.9,0,0,1-4.79,12.07c-4.6,9.77-6.32,15.91-13.22,23.95-8.82,10-16.48,13.8-28.94,19-17.25,7.66-28.93,7.28-47.91,7.28-23.37,0-43.69,6.52-59.6-10.73-8.62-9.2-12.83-17.25-13-29.71C744.08,841.27,762.67,836.09,770.91,818.46Z"/><path class="cls-7" d="M687.16,904.51c-17.82-.77,27-13,35.84-28.56,5.56-9.19,5.17-15.71,8.24-26.06,4.21-12.84,4.21-20.69,9.77-32.39s9.58-18,17.82-27.59a157,157,0,0,1,5,20.31c1.91,10.93,4,17.63,2.3,28.56a50.54,50.54,0,0,1-5.75,19.35c8.62-6.9,14.37-10,25.1-13,11.31-3.83,19-4.6,31-3.83a81.12,81.12,0,0,1,9.58,1.34,110.8,110.8,0,0,0-14.38,15.52c-8,9.39-9,17.82-18,26.06A67.79,67.79,0,0,1,783,892.82a165,165,0,0,1,27.59,0,122.85,122.85,0,0,1,23.77,2.3c13.6,2.1,21.08,4.6,33.53,9.39a315.16,315.16,0,0,1-32,8.62c-18.78,3.83-29.32,5.75-47.91,5.75-21.08,0-32.58-4-52.89-7.09C716.48,908.92,733.73,906.81,687.16,904.51Z"/><line class="cls-9" x1="410.83" y1="261" x2="411.59" y2="260.61"/><path class="cls-3" d="M277.83,854.68c-7.28-14.56-14.56-21.65-19-37.18-3.83-13.41-4.22-21.84-3.83-35.83.76-13.61,2.11-21.08,6.13-33.54,11.88,10.73,17.63,18.21,25.29,32,9,17.05,9.2,28.36,14.19,47,3.64,13.8,5.36,21.65,8.62,35.83h-2.49c-24.53,0-36.6,16.67-60.94,15.33-22.42-1.34-34.3-9-54.23-19.16-15.91-7.86-24.53-13.8-38.33-24.72,9-3.07,13.8-4.6,22.8-6.33,22.43-4,37-7.85,58.64-.95C254.07,832.64,265,839.93,277.83,854.68Z"/><ellipse class="cls-10" cx="521.97" cy="527.75" rx="275.19" ry="272.89"/><path class="cls-11" d="M526.76,799.49h.2c149.28,0,270.2-121.3,270.2-270.59S676.24,258.12,527,258.12h-.2v-11.3h.2a276.79,276.79,0,0,1,28.17,1.34l5.17-23.76a313.83,313.83,0,0,1,100.42,29.7L650,275.18a263.24,263.24,0,0,1,47.15,29.51L710,284.76a313.06,313.06,0,0,1,62.47,63.82l-19.36,15.14c8.63,12.45,19.94,28.93,26.45,42.35l23.57-4.41A310.36,310.36,0,0,1,829.16,500l-23.38.95c.77,9,1,17.64,1,26.64,0,13.42-.57,26.45-2.68,39.29L827.82,569a300.71,300.71,0,0,1-28.55,93.71l-19-15.53a286.18,286.18,0,0,1-30.09,50l17,17.25a302.74,302.74,0,0,1-74.16,69.18l-11.5-22a261,261,0,0,1-57.87,29.32l12.46,22.42a308.46,308.46,0,0,1-92,19.93l1-25.49c-6.13.39-12.46.77-18.2.77h-.2v-9ZM256.37,528.9c0-149.28,120.92-270.59,270.39-270.78v-11.3a301.25,301.25,0,0,0-35.26,2.11l-3.83-24.15A315.44,315.44,0,0,0,402,248.54l6.51,24.53a257.74,257.74,0,0,0-50.78,30.66l-12.07-22.42a314.51,314.51,0,0,0-69,69.95L299.87,363a306.13,306.13,0,0,0-28.36,48.29l-25.68-5.17a304.23,304.23,0,0,0-22.23,78.76l25.49,5.36a267.41,267.41,0,0,0-2.3,37.37c0,10,.38,19.55,1.34,29.32l-25.87,4.41a310.61,310.61,0,0,0,20.69,82l24.92-8.62a264.18,264.18,0,0,0,27.21,50.78l-21.46,15.14A321,321,0,0,0,334,766.15L346.05,742a266,266,0,0,0,35.84,25.87l-9.2,24.72a304.76,304.76,0,0,0,85.09,33.73l3.06-25.68a285,285,0,0,0,65.92,7.86v-9c-149.47,0-270.39-121.3-270.39-270.59Z"/><path class="cls-12" d="M256.37,528.9c0,149.29,121.11,270.59,270.59,270.59,149.28,0,270.2-121.3,270.2-270.59S676.24,258.12,527,258.12c-149.48,0-270.59,121.5-270.59,270.78"/><path class="cls-12" d="M650,275.18a263.24,263.24,0,0,1,47.15,29.51"/><line class="cls-13" x1="697.13" y1="304.69" x2="709.97" y2="284.76"/><path class="cls-12" d="M710,284.76a313.06,313.06,0,0,1,62.47,63.82"/><line class="cls-13" x1="772.44" y1="348.58" x2="753.08" y2="363.72"/><path class="cls-12" d="M753.08,363.72c8.63,12.45,19.94,28.93,26.45,42.35"/><line class="cls-13" x1="779.53" y1="406.07" x2="803.1" y2="401.66"/><path class="cls-12" d="M803.1,401.66A310.36,310.36,0,0,1,829.16,500"/><line class="cls-13" x1="829.16" y1="499.97" x2="805.78" y2="500.92"/><path class="cls-12" d="M805.78,500.92c.77,9,1,17.64,1,26.64,0,13.42-.57,26.45-2.68,39.29"/><line class="cls-13" x1="804.06" y1="566.85" x2="827.82" y2="568.96"/><path class="cls-12" d="M827.82,569a300.71,300.71,0,0,1-28.55,93.71"/><line class="cls-13" x1="799.27" y1="662.67" x2="780.3" y2="647.14"/><path class="cls-12" d="M780.3,647.14a286.18,286.18,0,0,1-30.09,50"/><line class="cls-13" x1="750.21" y1="697.16" x2="767.26" y2="714.41"/><path class="cls-12" d="M767.26,714.41a302.74,302.74,0,0,1-74.16,69.18"/><line class="cls-13" x1="693.1" y1="783.59" x2="681.6" y2="761.55"/><path class="cls-12" d="M681.6,761.55a261,261,0,0,1-57.87,29.32"/><line class="cls-13" x1="623.73" y1="790.87" x2="636.19" y2="813.29"/><path class="cls-12" d="M636.19,813.29a308.46,308.46,0,0,1-92,19.93"/><line class="cls-13" x1="544.2" y1="833.22" x2="545.16" y2="807.73"/><path class="cls-12" d="M545.16,807.73c-6.13.39-12.46.77-18.2.77a276.14,276.14,0,0,1-66.12-7.86"/><line class="cls-13" x1="460.84" y1="800.64" x2="457.78" y2="826.32"/><path class="cls-12" d="M457.78,826.32a304.76,304.76,0,0,1-85.09-33.73"/><line class="cls-13" x1="372.69" y1="792.59" x2="381.89" y2="767.87"/><path class="cls-12" d="M381.89,767.87A266,266,0,0,1,346.05,742"/><line class="cls-13" x1="346.05" y1="742" x2="333.98" y2="766.15"/><path class="cls-12" d="M334,766.15a321,321,0,0,1-60.36-65.54"/><line class="cls-13" x1="273.62" y1="700.61" x2="295.08" y2="685.47"/><path class="cls-12" d="M295.08,685.47a264.18,264.18,0,0,1-27.21-50.78"/><line class="cls-13" x1="267.87" y1="634.69" x2="242.95" y2="643.31"/><path class="cls-12" d="M243,643.31a310.61,310.61,0,0,1-20.69-82"/><line class="cls-13" x1="222.26" y1="561.29" x2="248.13" y2="556.88"/><path class="cls-12" d="M248.13,556.88c-1-9.77-1.34-19.35-1.34-29.32a267.41,267.41,0,0,1,2.3-37.37"/><line class="cls-13" x1="249.09" y1="490.19" x2="223.6" y2="484.83"/><path class="cls-12" d="M223.6,484.83a304.23,304.23,0,0,1,22.23-78.76"/><line class="cls-13" x1="245.83" y1="406.07" x2="271.51" y2="411.24"/><path class="cls-12" d="M271.51,411.24A306.13,306.13,0,0,1,299.87,363"/><line class="cls-13" x1="299.87" y1="362.95" x2="276.68" y2="351.26"/><path class="cls-12" d="M276.68,351.26a314.51,314.51,0,0,1,69-69.95"/><line class="cls-13" x1="345.67" y1="281.31" x2="357.74" y2="303.73"/><path class="cls-12" d="M357.74,303.73a257.74,257.74,0,0,1,50.78-30.66"/><line class="cls-13" x1="408.52" y1="273.07" x2="402.01" y2="248.54"/><path class="cls-12" d="M402,248.54a315.44,315.44,0,0,1,85.66-23.76"/><line class="cls-13" x1="487.67" y1="224.78" x2="491.5" y2="248.93"/><path class="cls-12" d="M491.5,248.93A307.09,307.09,0,0,1,527,246.82a276.79,276.79,0,0,1,28.17,1.34"/><line class="cls-13" x1="555.13" y1="248.16" x2="560.3" y2="224.4"/><path class="cls-12" d="M560.3,224.4a313.83,313.83,0,0,1,100.42,29.7"/><line class="cls-13" x1="660.72" y1="254.1" x2="649.98" y2="275.18"/><path class="cls-6" d="M629.67,1287.59h9.58a60.82,60.82,0,0,1-1.72,10.34c-.58,2.69-.39,4.41-1.73,6.52-2.3,3.45-5.55,3.83-9.58,4a15.7,15.7,0,0,1-9.77-1.72,25.3,25.3,0,0,1-4.79-3.07,10.88,10.88,0,0,1-5.18,2.49c-4,1-6.89.39-10.92-.38a29.16,29.16,0,0,1-11.5-5.56,15.29,15.29,0,0,1-6.51,6.52c-4.79,3.25-9,2.11-14.76,2.49-6.9.38-11.5,1-17.63-1.73-4.79-2.49-7.66-4.79-10.73-9.58-2.68-4.6-3.83-7.66-4-12.45v-59l13-19.54v74.73A20.36,20.36,0,0,0,550,1292c3.45,2.68,5.94,4.22,10.35,4.79,4.79.39,7.86-.57,12.07-3.06,3.07-2.11,3.83-4.79,6.9-7.29,2.49-1.72,3.45-3.64,6.13-3.44a4.64,4.64,0,0,1,3.45,1.72c2.49,1.72.77,5.17,3.26,7.28a7.07,7.07,0,0,0,6.52,1c3.45-.57,3.45-5.17,6.51-6.52,2.11-1,3.83-1.72,5.94-1,2.69.57,2.69,3.45,4.79,5.17,1.73,1,2.3,2.11,4.41,2.3a6.93,6.93,0,0,0,5.18-1A11.63,11.63,0,0,0,629.67,1287.59Z"/><path class="cls-6" d="M564.52,1324a7,7,0,0,1,7.09-6.9c3.83,0,7.28,3.25,7.28,6.9a7.28,7.28,0,0,1-7.28,7.28A7,7,0,0,1,564.52,1324Z"/><path class="cls-6" d="M545.16,1324c0-3.65,3.45-6.9,7.28-6.9a7.09,7.09,0,1,1-7.28,6.9Z"/><path class="cls-6" d="M504.73,1223.77l16.09-13.8v71.1c-2.1,9.2-5.75,14.76-13.79,20.31-7.86,6.13-14.76,6.9-25.11,6.9-9-.38-14.75-1.15-22.8-5.56a34.81,34.81,0,0,1-10.74-9.77c-2.68-3.45-3.64-5.75-5.17-10h9.39a19.42,19.42,0,0,0,7.28,9.39c4.79,3.83,9,3.45,15.14,4.4,8.63,1.15,15.91,3.07,22.81-2.3a21.18,21.18,0,0,0,6.51-10.35Z"/><polygon class="cls-6" points="486.33 1250.03 471.96 1262.67 477.51 1267.85 472.53 1276.09 474.26 1277.62 491.12 1264.4 485.75 1262.1 491.12 1254.82 486.33 1250.03"/><path class="cls-14" d="M307.73,1132c-13.8,2.49-21.66,4.79-34.5,10.73a144.77,144.77,0,0,0-26.44,15.52,142.86,142.86,0,0,0-26.26,24.15l59.6,8.24-19,49.25a141,141,0,0,1,30.08-12.08c19.74-5.74,31.63-5.36,52.32-5.74,15.91-.77,25.3,3.06,40.82,1,13-1.72,21.66-1.34,32.39-8.24,7.85-5.55,14.37-8.62,16.86-17.82,2.11-9,.38-16.29-6.13-22.8Z"/><path class="cls-15" d="M364.07,1206.14c4.79,2.87,7.85,3.83,13.41,4.79,8.24,1.73,13-.38,21.27-1a286.06,286.06,0,0,0,31.05-3.83"/><path class="cls-14" d="M755.38,1132c13.8,2.49,21.85,4.79,34.88,10.73a157.59,157.59,0,0,1,26.26,15.52,137.24,137.24,0,0,1,26.25,24.15L783,1190.62l19,49.25c-10.92-5.75-17.44-8.63-29.89-12.08-19.74-5.74-31.81-5.36-52.51-5.74-15.72-.77-25.11,3.06-40.63,1-13-1.72-21.65-1.34-32.38-8.24-8-5.55-14.57-8.62-16.87-17.82-2.11-9,0-16.29,6.13-22.8Z"/><path class="cls-15" d="M699.24,1206.14a33.33,33.33,0,0,1-13.42,4.79c-7.86,1.73-13-.38-21.46-1a277,277,0,0,1-30.86-3.83"/><path class="cls-14" d="M698.28,1207.48c-46.95-23.76-106.55-38.13-172.09-38.13-62.28,0-119.77,13-165.38,35.07L296,1110.71C343.56,1064.14,431,1041,526.19,1041c103.87,0,203.71,21.08,248.17,74.16Z"/><path class="cls-6" d="M425.77,1067.59l7.86,3.45L418.87,1100c-3.45-2.68-5.94-4.21-7.28-5.17a25.24,25.24,0,0,0-5.55-2.68,21.18,21.18,0,0,0-6.9-2.49,16.14,16.14,0,0,0-7.29.76c-1.34.19-3.06,1.73-4.4,3.45s-2.5,3.45-2.5,4.79c0,3.45,2.88,5.56,8.44,6.13,5.75.77,11.69,1.35,17.82,2.11a34.15,34.15,0,0,1,15.91,5.94c4.4,3.45,6.51,9.2,6.51,17.83,0,5.94-1.72,11.68-5.17,17.63a62,62,0,0,1-13.8,15.52c-5.94,4.41-11.69,7.86-17.82,9.58a45.45,45.45,0,0,1-13.23,2.11,57.11,57.11,0,0,1-12.45-1.73,99.9,99.9,0,0,1-11.69-4.4L374.42,1141c5.74,5.18,11.3,9.39,16.86,11.69,5.56,2.88,11.31,3.07,17.24,1.34a9.6,9.6,0,0,0,5.37-3.64,8.48,8.48,0,0,0,2.49-6.32c0-3.07-3.06-5.17-8.62-6.13-5.75-.77-12.07-1.73-17.82-2.49a32.44,32.44,0,0,1-15.52-5.75c-4.22-3.26-6.71-8.24-6.71-15.52a36.69,36.69,0,0,1,4.6-17.64c2.68-5.55,6.9-10.34,11.69-14.56a51.2,51.2,0,0,1,16.48-8.82,30.87,30.87,0,0,1,11.11-1.53,34.46,34.46,0,0,1,10.35,2.49Z"/><polygon class="cls-6" points="491.12 1151.71 453.37 1156.89 453.37 1146.16 458.54 1145.39 458.54 1072 453.37 1073.14 453.37 1062.03 491.12 1056.86 491.12 1067.59 485.37 1068.16 485.37 1141.75 491.12 1140.6 491.12 1151.71"/><path class="cls-6" d="M555.51,1117.22l-10.35-33.53v-26.83l19,1.34L591,1144.05l4.6.38v11.12l-39.09-2.88v-10.92l6.7.57-3.83-12.07-14.18-1v-13l10.35,1Zm-10.35-33.53v-26.83l-4.79-.39-25.68,82.41-4.79-.39v10.73l24.53,1.73v-10.73l-7.28-.58,3.83-11.31,14.18,1v-13l-10.35-.76,10-31.81Z"/><polygon class="cls-6" points="653.05 1171.07 613.76 1159 613.76 1147.88 619.71 1149.99 619.71 1076.6 613.76 1074.87 613.76 1064.14 653.05 1076.21 653.05 1086.94 646.53 1084.84 646.53 1110.7 669.91 1092.12 664.17 1090.39 664.17 1079.28 691.95 1087.9 691.95 1098.63 686.59 1097.29 668.57 1111.28 693.68 1172.41 698.85 1174.14 698.85 1184.87 667.62 1175.48 649.6 1126.8 646.53 1129.29 646.53 1158.23 653.05 1159.95 653.05 1171.07"/><rect class="cls-16" x="449.15" y="383.07" width="134.91" height="93.71"/><rect class="cls-16" x="311.94" y="486.55" width="423.13" height="107.51"/><rect class="cls-17" x="321.52" y="477.55" width="411.25" height="10.35"/><rect class="cls-17" x="437.08" y="371.95" width="17.63" height="105.59"/><rect class="cls-18" x="454.71" y="382.69" width="129.35" height="12.84"/><path class="cls-19" d="M433.63,361.22h23.76a3.2,3.2,0,0,1-1,3.45c-1.15,1.15-2.11.77-3.06,1.54-1.73,1.34-2.88,2.3-3.26,4.79h-8.24a5.26,5.26,0,0,0-1-3.07c-1.34-1.15-2.87-.38-4.22-1.15A6,6,0,0,1,433.63,361.22Z"/><path class="cls-19" d="M434.4,361.22c.57-1.34,1.72-1.91,3.06-3.06,1.34-1,2.68-.58,4-1.73,2.1-1.34,2.87-2.68,3.45-5.56a7.07,7.07,0,0,0,1.72,4.6c1.53,1,2.87.58,4.6,1a8.83,8.83,0,0,1,3.45,1.34,5.55,5.55,0,0,1,2.68,3.45Z"/><line class="cls-18" x1="444.94" y1="334.4" x2="444.94" y2="352.41"/><line class="cls-18" x1="444.94" y1="335.16" x2="444.94" y2="353.37"/><rect class="cls-17" x="583.68" y="371.95" width="18.02" height="104.25"/><path class="cls-19" d="M580,362.37h24.15a4.4,4.4,0,0,1-1.54,3.45c-.57,1-1.92.39-3.06,1a7.2,7.2,0,0,0-2.69,4.79h-8.62a2.7,2.7,0,0,0-1.15-2.68c-1-1.34-2.68-.38-4-1.34A5.68,5.68,0,0,1,580,362.37Z"/><path class="cls-19" d="M580.61,362.37a15.33,15.33,0,0,1,3.07-3.06c1.53-1.15,2.87-.77,4.21-1.73,2.11-1.72,2.69-3.26,3.45-5.56a4.46,4.46,0,0,0,1.73,4c1.34,1.15,2.68.77,4.41,1.53a7.13,7.13,0,0,1,3.45,1,5.33,5.33,0,0,1,2.49,3.83Z"/><line class="cls-18" x1="591.34" y1="335.16" x2="591.34" y2="353.37"/><rect class="cls-20" x="472.53" y="445.73" width="15.52" height="31.05"/><path class="cls-21" d="M471.57,443.05a8.59,8.59,0,0,1,8.63-8.62c4.79,0,7.85,3.83,8.62,8.62.57,3.45-3.83,2.68-8.62,2.68S471.57,446.5,471.57,443.05Z"/><rect class="cls-20" x="547.27" y="445.73" width="15.52" height="31.05"/><path class="cls-21" d="M546.12,443.05a8.58,8.58,0,0,1,8.62-8.62c5,0,8,3.83,8.63,8.62.76,3.45-3.64,2.68-8.63,2.68C550,445.73,546.12,446.5,546.12,443.05Z"/><rect class="cls-20" x="505.3" y="438.83" width="26.45" height="38.33"/><path class="cls-21" d="M504.92,438.26h26.83a13.2,13.2,0,0,0-13.61-12.07C511.24,426.38,506.07,431.36,504.92,438.26Z"/><rect class="cls-17" x="304.28" y="467.77" width="17.25" height="126.86"/><path class="cls-19" d="M300.64,457.81H324.4c.19,1.72,0,2.87-1.15,3.83-1,.77-1.92.38-3.07,1a8.14,8.14,0,0,0-3.06,5h-8.25a4.2,4.2,0,0,0-1.34-3.26c-1.15-.95-2.87,0-4.21-.95C301.21,462,300.64,460.3,300.64,457.81Z"/><path class="cls-19" d="M300.83,457.81c1.15-1.34,1.72-2.11,3.26-2.69,1.34-1.15,2.68-.76,4-2.1a8.17,8.17,0,0,0,3.83-5.18,4.17,4.17,0,0,0,1.73,4.22c1,1,2.49.57,4.21,1,1.34.76,2.3.38,3.45,1.34a6.48,6.48,0,0,1,2.3,3.45Z"/><rect class="cls-17" x="732" y="467.77" width="17.63" height="126.86"/><line class="cls-18" x1="453.37" y1="503.61" x2="580.04" y2="503.61"/><rect class="cls-17" x="437.85" y="510.89" width="14.76" height="82.02"/><rect class="cls-17" x="472.53" y="522.01" width="12.46" height="72.05"/><rect class="cls-17" x="548.99" y="522.58" width="12.46" height="71.09"/><rect class="cls-17" x="583.1" y="510.89" width="14.75" height="83.17"/><line class="cls-18" x1="432.86" y1="502.27" x2="452.6" y2="502.27"/><path class="cls-22" d="M452.6,502.27a2.54,2.54,0,0,1-1,3.06c-.76.77-1.53.39-2.49,1.15a5.93,5.93,0,0,0-2.49,3.84"/><line class="cls-18" x1="446.66" y1="510.32" x2="439.76" y2="510.32"/><path class="cls-22" d="M439.76,510.32a3,3,0,0,0-1-2.5c-.95-.95-2.11,0-3.44-.95a5.88,5.88,0,0,1-2.5-4.6"/><path class="cls-22" d="M433.63,502.27c.77-1,1-1.73,2.49-2.3,1-.77,1.92-.39,3.45-1.54,1.34-1.34,2.3-2.29,2.68-4.4a3.88,3.88,0,0,0,1.73,3.45c1,.95,2.11.76,3.45.95a8.49,8.49,0,0,1,2.68,1.15,4.79,4.79,0,0,1,2.11,2.69"/><line class="cls-18" x1="452.22" y1="502.27" x2="433.63" y2="502.27"/><path class="cls-19" d="M580.23,503H600a2.74,2.74,0,0,1-1,3.07c-.77.77-1.53.38-2.49,1a6.44,6.44,0,0,0-2.49,3.83h-6.9a2.58,2.58,0,0,0-1-2.3c-1-1.15-2.11-.38-3.45-1.15A4.53,4.53,0,0,1,580.23,503Z"/><path class="cls-22" d="M580.61,503c1.15-1.15,1.34-1.72,2.88-2.49,1-.57,1.91-.57,3.45-1.34a8.12,8.12,0,0,0,2.68-4.41,4.9,4.9,0,0,0,1.34,3.45c1.34,1,2.49.58,3.45,1,1.34.38,2.11,0,3.07,1a4.6,4.6,0,0,1,2.11,2.87"/><line class="cls-18" x1="599.59" y1="503.03" x2="580.61" y2="503.03"/><line class="cls-18" x1="484.99" y1="530.63" x2="548.23" y2="530.63"/><line class="cls-18" x1="452.22" y1="516.83" x2="582.34" y2="516.83"/><path class="cls-19" d="M468.51,514.34h19.54a5.23,5.23,0,0,1-1,3.06c-.76.77-1.72.39-2.49,1.16a3.89,3.89,0,0,0-2.3,3.83h-6.89a3.1,3.1,0,0,0-1.15-2.49c-1-1-2.3-.39-3.45-1A4.83,4.83,0,0,1,468.51,514.34Z"/><path class="cls-22" d="M468.89,514.34a6.5,6.5,0,0,1,2.3-2.3c1.34-.77,2.49-.77,3.45-1.53a7.2,7.2,0,0,0,3.06-4.41,4.17,4.17,0,0,0,1.54,3.45c1,.77,1.91.38,3.45,1,1,.38,1.91,0,3.06,1.15a3.93,3.93,0,0,1,1.73,2.68"/><line class="cls-18" x1="487.48" y1="514.34" x2="468.89" y2="514.34"/><path class="cls-19" d="M544.78,514.34h19.74c0,1.34,0,2.11-1.15,3.06-.58.77-1.73.39-2.3,1.16a5.93,5.93,0,0,0-2.5,3.83h-6.89a3.65,3.65,0,0,0-1-2.49c-1.15-1-2.49-.39-3.45-1A5,5,0,0,1,544.78,514.34Z"/><path class="cls-22" d="M545.16,514.34a7.14,7.14,0,0,1,2.49-2.3c1.34-.77,2.3-.77,3.45-1.53a8.07,8.07,0,0,0,3.07-4.41,4.62,4.62,0,0,0,1.34,3.45c1,.77,2.11.38,3.45,1,1.34.38,2.11,0,3.07,1.15a2.72,2.72,0,0,1,1.72,2.68"/><line class="cls-18" x1="563.75" y1="514.34" x2="545.16" y2="514.34"/><path class="cls-23" d="M568.54,556.88l-1.72,1.92V572h8.24V558.61l-1.92-1.73,3.06-3.83c1.35-3.07-.76-7.28-4.21-7.28a5.8,5.8,0,0,0-6.13,7.66Z"/><path class="cls-23" d="M458.73,556.88l-1.91,1.92V572h8.62V558.61l-2.11-1.73,3.07-3.83c1-3.07-1-7.28-4.22-7.28a5.8,5.8,0,0,0-6.13,7.66Z"/><path class="cls-23" d="M502.23,589.27V560.52h7.86v-4.79c-9.58-4-.19-16.86,6.71-16.48,6.71,0,16.67,10,6.9,15.52v5.75H531v28.37h7.67v5.74H491.5v-5.36Z"/><rect class="cls-24" x="298.91" y="594.06" width="455.13" height="7.28"/><path class="cls-21" d="M617.6,549.6l-3.45,3.45v22h14.37V552.28l-3.64-3.06,5.37-5.94c2.1-5.37-1.34-12.27-7.09-12.65-8-.39-12.84,7.28-10.16,13Z"/><path class="cls-11" d="M617.6,549.6l-3.45,3.45v22h14.37V552.28l-3.64-3.06,5.37-5.94c-3.65,0-3.65.38-9.58.38-7.86-.38-4.8,0-7.67,0Z"/><path class="cls-21" d="M645.39,549.6l-3.07,3.45v22H656.5V552.28l-3.45-3.06,5.56-5.94c1.72-5.37-1.73-12.27-7.28-12.65-8.24-.39-12.84,7.28-10.35,13Z"/><path class="cls-11" d="M645.39,549.6l-3.07,3.45v22H656.5V552.28l-3.45-3.06,5.56-5.94c-3.83,0-4.22.38-9.78.38-8.24-.38-4.79,0-7.85,0Z"/><path class="cls-21" d="M673.75,549.6l-3.45,3.45v22h14.56V552.28l-3.45-3.06,5.18-5.94c1.91-5.37-1.54-12.27-7.29-12.65-8-.39-12.45,7.28-10,13Z"/><path class="cls-11" d="M673.75,549.6l-3.45,3.45v22h14.56V552.28l-3.45-3.06,5.18-5.94c-3.83,0-3.83.38-9.78.38-7.85-.38-4.4,0-7.47,0Z"/><path class="cls-21" d="M701.73,549.6l-3.07,3.45v22H713V552.28l-3.83-3.06,5.56-5.94c2.11-5.37-1.73-12.27-7.28-12.65-7.86-.39-12.65,7.28-10.35,13Z"/><path class="cls-11" d="M701.73,549.6l-3.07,3.45v22H713V552.28l-3.83-3.06,5.56-5.94c-3.84,0-4,.38-9.59.38-8-.38-4.79,0-8,0Z"/><path class="cls-21" d="M332.26,551.9l-3.45,3.26v22.23h14.56V554.77l-3.83-3.06,5.55-5.94c1.92-5.56-1.72-12.46-7.28-12.84-8.05-.19-12.84,6.9-10,13.22Z"/><path class="cls-11" d="M332.26,551.9l-3.45,3.26v22.23h14.56V554.77l-3.83-3.06,5.55-5.94c-3.83,0-4.21.38-9.77.38-7.86-.38-4.79,0-7.47,0Z"/><path class="cls-21" d="M360.23,551.9l-3.06,3.26v22.23h14V554.77l-3.45-3.06,5.17-5.94c2.11-5.56-1.34-12.46-6.9-12.84-8.24-.19-12.65,6.9-10.35,13.22Z"/><path class="cls-11" d="M360.23,551.9l-3.06,3.26v22.23h14V554.77l-3.45-3.06,5.17-5.94c-3.45,0-3.64.38-9.2.38-8.24-.38-4.79,0-8.05,0Z"/><path class="cls-21" d="M388.41,551.9,385,555.16v22.23h14.57V554.77l-3.83-3.06,5.55-5.94c2.11-5.56-1.34-12.46-7.28-12.84-7.86-.19-12.65,6.9-10,13.22Z"/><path class="cls-11" d="M388.41,551.9,385,555.16v22.23h14.57V554.77l-3.83-3.06,5.55-5.94c-3.83,0-3.83.38-9.58.38-8.05-.38-4.6,0-7.66,0Z"/><path class="cls-21" d="M416.38,551.9l-3.06,3.26v22.23H427.5V554.77l-3.45-3.06,5.36-5.94c2.11-5.56-1.72-12.46-7.09-12.84-8.43-.19-12.84,6.9-10.34,13.22Z"/><path class="cls-11" d="M416.38,551.9l-3.06,3.26v22.23H427.5V554.77l-3.45-3.06,5.36-5.94c-3.64,0-4,.38-9.58.38-8.24-.38-4.79,0-7.85,0Z"/><path class="cls-19" d="M728.56,457.81h23.76a3.76,3.76,0,0,1-1,3.83c-1.15.77-2.11.38-3.07,1-1.72,1.53-2.87,2.87-3.25,5h-8.25a6,6,0,0,0-.95-3.26c-1.34-.95-3.07,0-4.6-.95A6.56,6.56,0,0,1,728.56,457.81Z"/><path class="cls-19" d="M728.94,457.81a6.88,6.88,0,0,1,3.06-2.69c1.35-1.15,2.69-.76,4.22-2.1a7.92,7.92,0,0,0,3.64-5.18,4.55,4.55,0,0,0,1.73,4.22c1.53,1,2.49.57,4.21,1,1.34.76,2.49.38,3.83,1.34a9.28,9.28,0,0,1,2.11,3.45Z"/><path class="cls-11" d="M739.29,441.71c1.72-.77.38-3.26,1.72-4.6a4.36,4.36,0,0,1,4-1l-1,5.75a11.3,11.3,0,0,1,3.45.77,7,7,0,0,1,4.21,3.06c1.34,1.35,1.34,2.88,1.34,4.79a11.34,11.34,0,0,0-5.55-3.06,11,11,0,0,0-3.45-.58L742.35,453l-2.49-2.5-3.64,2.88,1.34-7.67c-2.49-.38-4.21.39-6.32,1.35a9.56,9.56,0,0,0-2.68,2.87c0-3.07,1-5.56,3.83-7.28C734.69,441.33,738.14,441.71,739.29,441.71Z"/><path class="cls-11" d="M311.94,441.71c1.73-.77.77-3.26,2.11-4.6a4.11,4.11,0,0,1,4-1l-1.34,5.75a13.72,13.72,0,0,1,3.83.77c1.73.76,3.07,1.34,4,3.06a5.3,5.3,0,0,1,1.15,4.79,12.12,12.12,0,0,0-5.18-3.06,13.38,13.38,0,0,0-3.83-.58L315,453l-2.3-2.5-3.45,2.88,1-7.67c-2.49-.38-3.84.39-5.94,1.35a10.72,10.72,0,0,0-3.07,2.87,8.5,8.5,0,0,1,3.83-7.28C307.53,441.33,311,441.71,311.94,441.71Z"/><path class="cls-11" d="M477.51,503.42c.19,0,0-1.15.58-1.54.38-.57.77-.57,1.34-.57l-.19,2.3h1.34a3.51,3.51,0,0,1,1.34,1.53c.38.19.38,1,.38,1.73a11.21,11.21,0,0,0-1.72-1.54h-1.34l-.77,2.11-1-.57-1.53.95.77-2.68c-1-.38-1.34,0-2.49.19a5.19,5.19,0,0,1-1,1.15,5,5,0,0,1,1.34-2.87A16.68,16.68,0,0,1,477.51,503.42Z"/><path class="cls-11" d="M441.87,491.34c.77,0,.38-1.15.77-1.53.57-.19.95-.57,1.72-.19l-.77,2.1c.77,0,1.15,0,1.35.2.76,0,1.15.38,1.72,1.15a2.58,2.58,0,0,1,.38,1.72,2.2,2.2,0,0,0-2.1-1.15c-.2-.38-.58-.38-1.35-.38l-.57,2.11-.77-.58-1.34,1,.38-2.68a7.19,7.19,0,0,0-2.1.19L438,494.41a2.32,2.32,0,0,1,1.53-2.49C440.14,491.34,441.49,491.72,441.87,491.34Z"/><path class="cls-11" d="M554.17,503c.57,0,0-1.15.57-1.34.39-.38.77-.77,1.53-.38l-.38,2.11h1.34c.77.19,1,.57,1.34,1.34a1.39,1.39,0,0,1,.39,1.72c-.77-.76-1-1.15-1.73-1.15a4.33,4.33,0,0,0-1.34-.19l-.76,1.92-1-.58-1.15,1,.38-2.68a3.83,3.83,0,0,0-2.11.38,3.54,3.54,0,0,0-1.34,1,4.5,4.5,0,0,1,1.34-2.68C552.44,503,553.4,503.42,554.17,503Z"/><path class="cls-11" d="M589.24,492.3c.76,0,.38-1,.76-1.34.39-.77,1-.77,1.73-.77l-.77,2.49h1.34a15.59,15.59,0,0,1,1.73,1,3.19,3.19,0,0,1,.38,1.73,7,7,0,0,0-2.11-1H591l-.57,2.11-.77-1.15-1.34,1.34.38-3.07a4.06,4.06,0,0,0-2.11.77c-.38.38-.76.57-1.15,1a2.59,2.59,0,0,1,1.54-2.69A5.28,5.28,0,0,1,589.24,492.3Z"/><line class="cls-25" x1="321.52" y1="584.29" x2="436.69" y2="584.29"/><line class="cls-25" x1="321.52" y1="587.54" x2="436.69" y2="587.54"/><line class="cls-25" x1="321.52" y1="590.61" x2="437.46" y2="590.61"/><line class="cls-26" x1="597.86" y1="584.29" x2="730.66" y2="584.29"/><line class="cls-26" x1="597.86" y1="587.54" x2="730.66" y2="587.54"/><line class="cls-26" x1="597.86" y1="590.61" x2="731.24" y2="590.61"/><rect class="cls-27" x="582.34" y="589.84" width="15.52" height="8.05"/><rect class="cls-27" x="732" y="589.84" width="16.86" height="9.01"/><rect class="cls-27" x="548.23" y="589.84" width="13.8" height="8.24"/><rect class="cls-27" x="471.19" y="589.84" width="13.8" height="8.24"/><rect class="cls-27" x="437.85" y="589.84" width="13.8" height="8.24"/><rect class="cls-27" x="304.28" y="589.84" width="16.67" height="7.28"/><path class="cls-11" d="M411.59,711.91c2.3,0,5.18-2.1,7.48-1.72,2.49.77,3.83,1.72,6.32,2.49,1.73.58,2.68,1.34,4.41,1.34,3.06,0,4.6-2.68,7.28-3.06s4.21-.77,6.51,0c3.45.57,4.6,4,8.05,4,2.68,0,3.64-1.91,6.52-3.07,2.11-.57,3.06-1.34,5.56-.95,1.91,0,3.06,1.72,5.17,2.3,2.68.76,1.92,2.1,4.79,1.72,2.68-.19,6.13-3.64,9-4,2.68-.39,4,0,6.51.57,2.69.77,3.64,2.88,6.52,2.88,3.06,0,4-3.07,7.28-3.45,2.3-.39,3.64.57,6.13.95,2.69.77,4.22,3.07,6.52,3.45,0,0,3.45-1.34,5.17-2.1,1.92-1,2.69-2.69,4.6-2.3,1.73,0,2.49.95,3.84,1.72,1.34,1,1.72,2.11,3.44,2.3,2.5.77,3.45-1.72,5.95-2.3,2.68-.77,4-2.11,6.51-1.15,2.11.77,2.11,2.49,3.83,3.45,2.3,1.53,4.41,1.53,7.28.77,1.92-.77,2.69-2.49,4.8-3.07a12.6,12.6,0,0,1,4-.77c2.88.39,4.6,1.35,5.94,3.84a15.79,15.79,0,0,0,7.86-1.73c1.34-.95,1.72-2.68,3.45-3.06,3.45-1.15,4.6,3.83,8,4,2.3.38,4-.19,6.51-1,2.11-.95,2.3-3.06,4.79-3.06,2.11,0,2.69,2.3,4.79,3.45,2.49,1.34,4.22,2.29,6.9,1.72,3.07-.38,3.45-4.6,6.9-4.6,2.88-.19,3.45,2.88,6.52,3.45,2.49.77,4.21,1.15,6.7,0,1.73-.57,1.34-3.45,3.45-3.45a4.51,4.51,0,0,1,4.79,4.22l4.8,4.79V707.12l-4.8-4.4c0-2.88-2.49-5-4.79-4.6-2.11.38-1.72,2.87-3.45,3.83a9,9,0,0,1-6.7,0c-3.07-.77-3.64-3.83-6.52-3.83-3.45.38-3.83,4.6-6.9,4.79-2.68.76-4.41-.19-6.9-1.73-2.1-1-2.68-3.45-4.79-3.45-2.49,0-2.68,2.11-4.79,2.88-2.49,1-4.21,1.72-6.51,1.34-3.45-.38-4.6-5.17-8-4.22-1.73.39-2.11,2.11-3.45,2.88a12.88,12.88,0,0,1-7.86,2.11c-1.34-2.5-3.06-3.45-5.94-3.84a8.84,8.84,0,0,0-4,.58c-2.11.76-2.88,2.49-4.8,3.26-2.87.57-5,.57-7.28-.77-1.72-1-1.72-2.68-3.83-3.83-2.49-.58-3.83.76-6.51,1.34-2.5.76-3.45,2.87-5.95,2.49-1.72-.38-2.1-1.73-3.44-2.49-1.35-.58-2.11-1.73-3.84-1.73-1.91-.19-2.68,1.54-4.6,2.49a50.19,50.19,0,0,1-5.17,1.73c-2.3,0-3.83-2.49-6.52-3.07-2.49-.76-3.83-1.34-6.13-1.15-3.26,0-4.22,3.45-7.28,3.45-2.88,0-3.83-2.3-6.52-3.06a24.12,24.12,0,0,0-6.51-.39c-2.88.39-6.33,3.45-9,4.22-2.87.38-2.11-1-4.79-1.73-2.11-.76-3.26-2.49-5.17-2.49-2.5-.19-3.45.39-5.56,1.15-2.88,1-3.84,3.07-6.52,3.07-3.45,0-4.6-3.45-8.05-4.22a12.58,12.58,0,0,0-6.51,0c-2.68.39-4.22,2.88-7.28,2.88a9.54,9.54,0,0,1-4.41-1.15c-2.49-.58-3.83-1.92-6.32-2.3-2.3-.38-5.18,1.72-7.48,1.72Z"/><path class="cls-3" d="M411.59,683.94c2.3,0,5.18-2.3,7.48-1.73,2.49.38,3.83,1.53,6.32,2.11,1.73.77,2.68,1.34,4.41,1.34,3.06,0,4.6-2.3,7.28-3.07a18.7,18.7,0,0,1,6.51,0c3.45.77,4.6,4.6,8.05,4.22,2.68,0,3.64-2.11,6.52-2.87,2.11-.58,3.06-1.35,5.56-1.35,1.91.39,3.06,1.73,5.17,2.5,2.68.57,1.92,2.3,4.79,1.72,2.68-.38,6.13-3.45,9-4.22a12.52,12.52,0,0,1,6.51.77c2.69.58,3.64,3.07,6.52,3.07,3.06,0,4-3.45,7.28-3.84,2.3,0,3.64.77,6.13,1.35,2.69.76,4.22,2.87,6.52,3.25a40,40,0,0,0,5.17-2.1c1.92-.77,2.69-2.5,4.6-2.5,1.73.39,2.49,1.15,3.84,1.73,1.34,1.15,1.72,2.11,3.44,2.49,2.5.58,3.45-1.34,5.95-2.49,2.68-.58,4-2.11,6.51-1,2.11.58,2.11,2.69,3.83,3.45,2.3,1.34,4.41,1.34,7.28.58,1.92-.58,2.69-2.3,4.8-3.07a9,9,0,0,1,4-.38,7.84,7.84,0,0,1,5.94,3.45,11.45,11.45,0,0,0,7.86-1.73c1.34-1,1.72-2.3,3.45-3.07,3.45-1,4.6,3.84,8,4.22a10.14,10.14,0,0,0,6.51-1.15c2.11-.57,2.3-3.07,4.79-3.07,2.11,0,2.69,2.88,4.79,3.84,2.49,1,4.22,2.1,6.9,1.72,3.07-.76,3.45-4.79,6.9-4.79,2.88,0,3.45,2.69,6.52,3.45,2.49.58,4.21,1.34,6.7,0,1.73-.76,1.34-3.07,3.45-3.45a4.36,4.36,0,0,1,4.79,4l4.8,5v15.52l-4.8-5a4.36,4.36,0,0,0-4.79-4c-2.11.39-1.72,2.69-3.45,3.84-2.49.95-4.21.19-6.7,0-3.07-.77-3.64-3.84-6.52-3.84-3.45,0-3.83,4-6.9,4.79-2.68.39-4.41-.38-6.9-1.72-2.1-1-2.68-3.45-4.79-3.83-2.49,0-2.68,2.49-4.79,3.06a14,14,0,0,1-6.51,1.54c-3.45-.77-4.6-5.56-8-4.6-1.73.76-2.11,2.1-3.45,3.06a10.48,10.48,0,0,1-7.86,1.73,7.84,7.84,0,0,0-5.94-3.45,5.74,5.74,0,0,0-4,.76c-2.11.77-2.88,2.5-4.8,2.69a8.74,8.74,0,0,1-7.28-.19c-1.72-1.15-1.72-3.26-3.83-3.84-2.49-1.15-3.83.58-6.51,1.34-2.5.77-3.45,2.69-5.95,2.5-1.72-.39-2.1-1.73-3.44-2.5-1.35-1-2.11-1.72-3.84-2.1-1.91,0-2.68,1.72-4.6,2.49a40.56,40.56,0,0,1-5.17,2.11c-2.3,0-3.83-2.5-6.52-3.26-2.49-.58-3.83-1.34-6.13-1.34-3.26.38-4.22,3.83-7.28,3.83-2.88,0-3.83-2.49-6.52-3.07-2.49-.76-3.83-1.15-6.51-.76-2.88.76-6.33,3.83-9,4.6-2.87.19-2.11-1.15-4.79-2.11-2.11-.39-3.26-2.11-5.17-2.49-2.5,0-3.45.76-5.56,1.34-2.88.76-3.84,2.87-6.52,3.26-3.45,0-4.6-3.84-8.05-4.6a18.22,18.22,0,0,0-6.51,0c-2.68.76-4.22,3.06-7.28,3.06-1.73,0-2.68-.57-4.41-1-2.49-1-3.83-2.1-6.32-2.49-2.3-.57-5.18,1.73-7.48,1.73Z"/></g></g></svg>